# xmcd
#
# Track frame offsets: 
#        150
#        16798
#        34795
#        49313
#        65380
#        83080
#        103050
#        118790
#        135025
#        153340
#        169740
#        186445
#
# Disc length: 2685 seconds
#
# Revision: 1
# Processed by: cddbd v1.5.2PL0 Copyright (c) Steve Scherf et al.
# Submitted via: ExactAudioCopyFreeDBPlugin 1.0
#
DISCID=940a7b0c
DTITLE=Aretha Franklin - Young, Gifted and Black
DYEAR=1972
DGENRE=Soul
TTITLE0=Oh Me Oh My (I'm a Fool for You Baby)
TTITLE1=Day Dreaming
TTITLE2=Rock Steady
TTITLE3=Young, Gifted and Black
TTITLE4=All the King's Horses
TTITLE5=A Brand New Me
TTITLE6=April Fools
TTITLE7=I've Been Loving You Too Long
TTITLE8=First Snow in Kokomo
TTITLE9=The Long and Winding Road
TTITLE10=Didn't I (Blow Your Mind This Time)
TTITLE11=Border Song (Holy Moses)
EXTD=
EXTT0=
EXTT1=
EXTT2=
EXTT3=
EXTT4=
EXTT5=
EXTT6=
EXTT7=
EXTT8=
EXTT9=
EXTT10=
EXTT11=
PLAYORDER=
